<svg xmlns="http://www.w3.org/2000/svg" width="100" height="80" viewBox="0 0 100 80"><g><g clip-path="url(#clip-363)"><path fill="#b5b8a3" d="M47.622 44.958c-3.858.426-5.612 3.036-6.694 6.018-.903 2.487-1.204 5.189-1.805 7.788-.5 2.165-.942 4.352-1.605 6.47-.92 2.943-2.935 4.993-6.007 5.454-5.701.855-11.44 1.452-17.4 2.186-1.39-5.994-2.864-11.583-3.945-17.246-.785-4.11.757-7.738 4.258-9.967 4.26-2.711 8.94-4.757 13.229-7.428 3.121-1.943 6.105-4.225 8.744-6.775 1.152-1.113 1.288-3.277 1.946-5.132-7.028-1.508-11.481 2.038-15.78 5.918-3.83 3.458-7.542 7.05-11.454 10.41-1.305 1.12-3.069 1.705-4.836 2.65-2.327-4.516-.769-8.435 1.267-12.044 3.992-7.078 10.645-10.848 18.073-13.338 5.149-1.727 10.463-2.969 15.586-4.761 2.902-1.016 5.69-2.518 8.276-4.191.97-.628 1.945-2.61 1.626-3.526-.388-1.114-2.149-2.476-3.297-2.458-2.88.044-5.877.426-8.597 1.35-7.76 2.637-14.404 7.32-21.001 12.071-3.821 2.753-7.754 5.39-11.847 7.707-3.148 1.783-4.432 1.016-5.374-2.507-1.217-4.553-.172-8.92 2.57-12.421C11.012 1.665 20.52-4.834 32.858-6.072c3.77-.379 7.652.492 11.47.372a31.229 31.229 0 0 0 8.324-1.418c1.977-.624 3.461-2.315 3.258-4.707-.194-2.286-1.884-3.338-3.835-3.966-5.967-1.918-11.514-.205-16.753 2.434-6.195 3.12-12.12 6.776-18.304 9.92-2.42 1.229-5.185 1.91-7.87 2.46-3.873.794-5.68-1.2-4.623-4.998 2.54-9.124 8.859-14.564 17.55-17.551 8.443-2.902 16.892-1.517 25.363-.023 3.321.585 6.714.785 10.082 1.066.958.08 1.962-.085 2.914-.285 3.368-.708 5.55-2.418 5.538-4.592-.017-3.018-2.108-4.83-4.616-5.59-2.67-.81-5.622-1.349-8.373-1.109-10.562.92-21.092 2.202-31.634 3.345-.685.074-1.374.119-2.807.24 1.032-2.149 1.596-4.027 2.7-5.5 5.016-6.692 11.815-11.108 19.541-13.9 5.927-2.142 11.165.275 15.92 3.874 2.98 2.257 5.881 4.641 9.013 6.667 1.815 1.175 3.949 2.123 6.062 2.514 3.29.61 5.436-1.462 5.592-4.848.155-3.4-1.518-5.795-4.332-7.435-5.84-3.405-12.369-4.374-18.929-5.211-2.204-.28-4.51-.317-6.562-1.046-1.312-.467-2.974-1.893-3.143-3.08-.167-1.177 1.017-3.093 2.16-3.828 12.01-7.727 34.07-10.242 47.02-.134 1.398 1.091 2.612 2.42 3.886 3.666.892.872 1.699 1.834 2.615 2.678 4.333 3.99 7.885 3.685 10.864-1.46 2.757-4.762 4.934-9.858 7.374-14.803 1.02-2.068 1.72-4.43 3.203-6.087 1.05-1.174 3.425-2.218 4.747-1.813 1.5.458 3.234 2.446 3.553 4.033.96 4.788-1.167 9.054-3.422 13.146-3.982 7.23-9.016 13.66-15.506 19.934 10.977-1.752 20.329.853 28.065 7.922 7.748 7.08 11.121 16.08 10.301 26.531l-.706.667c-2.943-2.478-5.93-4.906-8.818-7.447-2.876-2.53-5.532-5.32-8.506-7.721-3.075-2.482-6.57-4.219-10.667-4.435-3.775-.2-5.687.72-6.491 3.297-.847 2.713.529 6.516 3.44 7.6 3.267 1.218 6.792 2.169 10.252 2.354 8.597.46 13.446 3.804 15.567 12.234 1.032 4.101 1.202 8.422 1.722 12.648.074.606.003 1.261-.146 1.857-.682 2.716-1.445 5.684-4.472 6.448-2.81.709-4.184-1.946-5.584-3.793-4.027-5.315-7.647-10.958-11.917-16.062-3.548-4.242-8.228-7.088-13.992-7.561-.796-.065-1.73-.266-2.375.053-1.257.62-3.088 1.39-3.33 2.417-.293 1.242.418 3.258 1.407 4.143 1.685 1.508 3.903 2.438 5.938 3.535 5.563 2.999 10.998 6.055 15.336 10.896 8.222 9.173 7.779 25.69-1.36 34.063-2.33 2.135-5.1 3.82-7.785 5.524-1.567.995-3.258.878-3.759-1.286-.934-4.03-2.213-8.087-2.373-12.17-.404-10.369-2.257-20.244-8.48-28.763-1.59-2.177-4.061-4.07-6.54-5.101-1.427-.592-4.165.293-5.415 1.467-1.036.974-1.448 3.604-.91 5.04.941 2.512 2.674 4.785 4.338 6.956 5.444 7.107 10.802 14.293 12.503 23.33 2.047 10.878-.51 20.36-9.577 27.385-1.72 1.333-3.812 2.321-5.882 3.04-4.88 1.698-7.26-.356-6.578-5.447.626-4.678 1.509-9.337 1.845-14.035.7-9.76-.245-19.398-3.054-28.809-.228-.763-.482-1.56-.918-2.21-1.175-1.754-2.563-3.41-4.987-2.783-2.503.647-3.737 2.625-3.528 5.028.245 2.815.975 5.598 1.617 8.366 2.304 9.92 4.22 19.895 3.623 30.143-.342 5.872-2.006 11.284-7.114 14.88-1.335.94-3.012 1.588-4.623 1.908-4.936.98-7.65-2.161-6.534-7.053a1841.861 1841.861 0 0 0 6.773-31.04c.378-1.799.43-3.74.227-5.571-.34-3.04-3.042-5.214-5.44-4.697-2.182.47-3.19 2.734-2.491 5.936 1.817 8.336 1.935 16.644-.61 24.84-2.038 6.56-5.075 12.564-10.78 16.8-1.8 1.339-3.723 2.129-5.93.828-2.127-1.252-1.826-3.259-1.658-5.219.69-8.099 3.202-15.676 6.589-23.006.846-1.832 1.984-3.664.511-5.862z"/></g></g></svg>